<svg xmlns="http://www.w3.org/2000/svg" width="750" height="1050" viewBox="0 0 750 1050">
  <defs><radialGradient id="neb" cx="0.3" cy="0.25" r="0.85">
    <stop offset="0" stop-color="#3b2a6b"/><stop offset="0.6" stop-color="#141029"/>
    <stop offset="1" stop-color="#05060d"/></radialGradient></defs>
  <rect width="750" height="1050" fill="url(#neb)"/>
  <circle cx="331" cy="308" r="2.0" fill="#ffffff" opacity="0.71"/><circle cx="74" cy="192" r="1.4" fill="#ffffff" opacity="0.66"/><circle cx="519" cy="439" r="0.8" fill="#ffffff" opacity="0.31"/><circle cx="428" cy="143" r="1.1" fill="#ffffff" opacity="0.31"/><circle cx="434" cy="121" r="0.8" fill="#ffffff" opacity="0.91"/><circle cx="645" cy="126" r="2.0" fill="#ffffff" opacity="0.28"/><circle cx="226" cy="95" r="1.1" fill="#ffffff" opacity="0.45"/><circle cx="147" cy="241" r="1.4" fill="#ffffff" opacity="0.64"/><circle cx="698" cy="370" r="0.8" fill="#ffffff" opacity="0.66"/><circle cx="654" cy="384" r="1.4" fill="#ffffff" opacity="0.32"/><circle cx="729" cy="128" r="0.8" fill="#ffffff" opacity="0.68"/><circle cx="508" cy="875" r="1.4" fill="#ffffff" opacity="0.58"/><circle cx="464" cy="740" r="1.4" fill="#ffffff" opacity="0.42"/><circle cx="184" cy="499" r="0.8" fill="#ffffff" opacity="0.65"/><circle cx="537" cy="1013" r="1.4" fill="#ffffff" opacity="0.76"/><circle cx="294" cy="149" r="0.8" fill="#ffffff" opacity="0.61"/><circle cx="168" cy="700" r="1.1" fill="#ffffff" opacity="0.9"/><circle cx="431" cy="80" r="0.8" fill="#ffffff" opacity="0.79"/><circle cx="586" cy="642" r="1.4" fill="#ffffff" opacity="0.74"/><circle cx="608" cy="1017" r="2.0" fill="#ffffff" opacity="0.3"/><circle cx="95" cy="552" r="2.0" fill="#ffffff" opacity="0.74"/><circle cx="66" cy="124" r="1.4" fill="#ffffff" opacity="0.7"/><circle cx="697" cy="912" r="1.4" fill="#ffffff" opacity="0.75"/><circle cx="684" cy="710" r="0.8" fill="#ffffff" opacity="0.91"/><circle cx="363" cy="344" r="0.8" fill="#ffffff" opacity="0.6"/><circle cx="223" cy="588" r="1.1" fill="#ffffff" opacity="0.77"/><circle cx="407" cy="800" r="2.0" fill="#ffffff" opacity="0.31"/><circle cx="459" cy="822" r="1.4" fill="#ffffff" opacity="0.87"/><circle cx="440" cy="570" r="2.0" fill="#ffffff" opacity="0.94"/><circle cx="699" cy="779" r="1.1" fill="#ffffff" opacity="0.36"/><circle cx="180" cy="309" r="1.1" fill="#ffffff" opacity="0.71"/><circle cx="12" cy="993" r="1.1" fill="#ffffff" opacity="0.43"/><circle cx="4" cy="298" r="2.0" fill="#ffffff" opacity="0.62"/><circle cx="624" cy="652" r="1.1" fill="#ffffff" opacity="0.73"/><circle cx="527" cy="110" r="2.0" fill="#ffffff" opacity="0.88"/><circle cx="696" cy="803" r="2.0" fill="#ffffff" opacity="0.53"/><circle cx="106" cy="986" r="2.0" fill="#ffffff" opacity="0.29"/><circle cx="68" cy="427" r="2.0" fill="#ffffff" opacity="0.36"/><circle cx="348" cy="107" r="0.8" fill="#ffffff" opacity="0.25"/><circle cx="154" cy="207" r="1.4" fill="#ffffff" opacity="0.68"/><circle cx="72" cy="425" r="2.0" fill="#ffffff" opacity="0.35"/><circle cx="258" cy="711" r="1.4" fill="#ffffff" opacity="0.58"/><circle cx="118" cy="999" r="2.0" fill="#ffffff" opacity="0.59"/><circle cx="319" cy="175" r="1.1" fill="#ffffff" opacity="0.32"/><circle cx="350" cy="542" r="2.0" fill="#ffffff" opacity="0.83"/><circle cx="165" cy="47" r="1.1" fill="#ffffff" opacity="0.92"/><circle cx="540" cy="740" r="1.1" fill="#ffffff" opacity="0.73"/><circle cx="27" cy="610" r="0.8" fill="#ffffff" opacity="0.74"/><circle cx="267" cy="751" r="1.1" fill="#ffffff" opacity="0.5"/><circle cx="228" cy="1029" r="1.4" fill="#ffffff" opacity="0.7"/><circle cx="627" cy="399" r="1.1" fill="#ffffff" opacity="0.82"/><circle cx="232" cy="409" r="2.0" fill="#ffffff" opacity="0.5"/><circle cx="29" cy="57" r="1.4" fill="#ffffff" opacity="0.58"/><circle cx="198" cy="705" r="2.0" fill="#ffffff" opacity="0.82"/><circle cx="740" cy="715" r="1.4" fill="#ffffff" opacity="0.31"/><circle cx="104" cy="464" r="2.0" fill="#ffffff" opacity="0.39"/><circle cx="209" cy="988" r="0.8" fill="#ffffff" opacity="0.59"/><circle cx="668" cy="704" r="0.8" fill="#ffffff" opacity="0.83"/><circle cx="122" cy="795" r="1.1" fill="#ffffff" opacity="0.58"/><circle cx="182" cy="888" r="1.4" fill="#ffffff" opacity="0.31"/><circle cx="739" cy="810" r="2.0" fill="#ffffff" opacity="0.53"/><circle cx="86" cy="325" r="1.1" fill="#ffffff" opacity="0.95"/><circle cx="28" cy="309" r="2.0" fill="#ffffff" opacity="0.81"/><circle cx="149" cy="971" r="1.4" fill="#ffffff" opacity="0.36"/><circle cx="561" cy="268" r="0.8" fill="#ffffff" opacity="0.26"/><circle cx="743" cy="210" r="1.1" fill="#ffffff" opacity="0.55"/><circle cx="199" cy="432" r="0.8" fill="#ffffff" opacity="0.43"/><circle cx="299" cy="1026" r="1.1" fill="#ffffff" opacity="0.78"/><circle cx="333" cy="531" r="2.0" fill="#ffffff" opacity="0.83"/><circle cx="62" cy="724" r="2.0" fill="#ffffff" opacity="0.71"/><circle cx="529" cy="861" r="1.1" fill="#ffffff" opacity="0.62"/><circle cx="536" cy="1045" r="0.8" fill="#ffffff" opacity="0.86"/><circle cx="187" cy="8" r="1.1" fill="#ffffff" opacity="0.37"/><circle cx="484" cy="246" r="0.8" fill="#ffffff" opacity="0.48"/><circle cx="530" cy="988" r="0.8" fill="#ffffff" opacity="0.87"/><circle cx="58" cy="508" r="1.1" fill="#ffffff" opacity="0.44"/><circle cx="100" cy="1039" r="2.0" fill="#ffffff" opacity="0.64"/><circle cx="64" cy="907" r="1.4" fill="#ffffff" opacity="0.68"/><circle cx="517" cy="1048" r="1.1" fill="#ffffff" opacity="0.73"/><circle cx="463" cy="1040" r="2.0" fill="#ffffff" opacity="0.61"/><circle cx="253" cy="531" r="1.1" fill="#ffffff" opacity="0.84"/><circle cx="140" cy="853" r="0.8" fill="#ffffff" opacity="0.52"/><circle cx="323" cy="148" r="1.1" fill="#ffffff" opacity="0.55"/><circle cx="217" cy="620" r="0.8" fill="#ffffff" opacity="0.88"/><circle cx="158" cy="749" r="1.1" fill="#ffffff" opacity="0.43"/><circle cx="140" cy="957" r="1.1" fill="#ffffff" opacity="0.77"/><circle cx="96" cy="815" r="2.0" fill="#ffffff" opacity="0.36"/><circle cx="683" cy="458" r="1.1" fill="#ffffff" opacity="0.74"/><circle cx="527" cy="827" r="1.4" fill="#ffffff" opacity="0.54"/><circle cx="365" cy="652" r="0.8" fill="#ffffff" opacity="0.76"/><circle cx="19" cy="692" r="2.0" fill="#ffffff" opacity="0.56"/><circle cx="18" cy="787" r="1.4" fill="#ffffff" opacity="0.61"/><circle cx="302" cy="1049" r="0.8" fill="#ffffff" opacity="0.33"/><circle cx="234" cy="214" r="0.8" fill="#ffffff" opacity="0.44"/><circle cx="40" cy="371" r="1.4" fill="#ffffff" opacity="0.78"/><circle cx="432" cy="529" r="2.0" fill="#ffffff" opacity="0.35"/><circle cx="527" cy="1012" r="1.4" fill="#ffffff" opacity="0.31"/><circle cx="58" cy="375" r="2.0" fill="#ffffff" opacity="0.88"/><circle cx="275" cy="34" r="0.8" fill="#ffffff" opacity="0.81"/><circle cx="85" cy="455" r="0.8" fill="#ffffff" opacity="0.44"/><circle cx="124" cy="929" r="0.8" fill="#ffffff" opacity="0.49"/><circle cx="566" cy="855" r="1.4" fill="#ffffff" opacity="0.69"/><circle cx="44" cy="488" r="0.8" fill="#ffffff" opacity="0.93"/><circle cx="268" cy="103" r="1.1" fill="#ffffff" opacity="0.39"/><circle cx="319" cy="624" r="1.1" fill="#ffffff" opacity="0.45"/><circle cx="512" cy="364" r="1.4" fill="#ffffff" opacity="0.49"/><circle cx="18" cy="512" r="0.8" fill="#ffffff" opacity="0.26"/><circle cx="750" cy="1035" r="1.1" fill="#ffffff" opacity="0.61"/><circle cx="251" cy="915" r="0.8" fill="#ffffff" opacity="0.71"/><circle cx="665" cy="885" r="2.0" fill="#ffffff" opacity="0.63"/><circle cx="402" cy="1037" r="1.4" fill="#ffffff" opacity="0.73"/><circle cx="235" cy="701" r="1.1" fill="#ffffff" opacity="0.83"/><circle cx="723" cy="286" r="2.0" fill="#ffffff" opacity="0.94"/><circle cx="55" cy="265" r="0.8" fill="#ffffff" opacity="0.3"/><circle cx="261" cy="882" r="1.1" fill="#ffffff" opacity="0.29"/><circle cx="681" cy="780" r="1.4" fill="#ffffff" opacity="0.67"/><circle cx="709" cy="600" r="0.8" fill="#ffffff" opacity="0.57"/><circle cx="161" cy="550" r="2.0" fill="#ffffff" opacity="0.25"/><circle cx="372" cy="673" r="1.4" fill="#ffffff" opacity="0.42"/><circle cx="316" cy="446" r="1.4" fill="#ffffff" opacity="0.38"/><circle cx="343" cy="781" r="0.8" fill="#ffffff" opacity="0.58"/><circle cx="514" cy="411" r="1.1" fill="#ffffff" opacity="0.6"/><circle cx="5" cy="186" r="1.4" fill="#ffffff" opacity="0.82"/><circle cx="147" cy="818" r="0.8" fill="#ffffff" opacity="0.53"/><circle cx="306" cy="623" r="1.1" fill="#ffffff" opacity="0.31"/><circle cx="541" cy="317" r="2.0" fill="#ffffff" opacity="0.79"/><circle cx="737" cy="1012" r="1.1" fill="#ffffff" opacity="0.45"/><circle cx="633" cy="296" r="0.8" fill="#ffffff" opacity="0.83"/><circle cx="732" cy="1050" r="2.0" fill="#ffffff" opacity="0.76"/><circle cx="517" cy="285" r="0.8" fill="#ffffff" opacity="0.83"/><circle cx="598" cy="470" r="0.8" fill="#ffffff" opacity="0.27"/><circle cx="136" cy="738" r="0.8" fill="#ffffff" opacity="0.51"/><circle cx="462" cy="103" r="0.8" fill="#ffffff" opacity="0.69"/><circle cx="697" cy="500" r="2.0" fill="#ffffff" opacity="0.43"/><circle cx="467" cy="143" r="0.8" fill="#ffffff" opacity="0.71"/><circle cx="67" cy="970" r="1.4" fill="#ffffff" opacity="0.82"/><circle cx="271" cy="480" r="1.1" fill="#ffffff" opacity="0.41"/><circle cx="665" cy="942" r="2.0" fill="#ffffff" opacity="0.84"/><circle cx="78" cy="981" r="1.4" fill="#ffffff" opacity="0.79"/><circle cx="631" cy="406" r="0.8" fill="#ffffff" opacity="0.67"/><circle cx="339" cy="520" r="1.4" fill="#ffffff" opacity="0.68"/><circle cx="136" cy="25" r="2.0" fill="#ffffff" opacity="0.29"/><circle cx="275" cy="203" r="1.1" fill="#ffffff" opacity="0.72"/><circle cx="297" cy="584" r="2.0" fill="#ffffff" opacity="0.58"/><circle cx="121" cy="408" r="1.4" fill="#ffffff" opacity="0.93"/><circle cx="484" cy="35" r="1.4" fill="#ffffff" opacity="0.57"/><circle cx="518" cy="920" r="1.4" fill="#ffffff" opacity="0.52"/><circle cx="215" cy="152" r="0.8" fill="#ffffff" opacity="0.35"/><circle cx="536" cy="536" r="1.4" fill="#ffffff" opacity="0.34"/><circle cx="646" cy="1041" r="1.4" fill="#ffffff" opacity="0.87"/><circle cx="720" cy="747" r="1.1" fill="#ffffff" opacity="0.6"/><circle cx="497" cy="807" r="0.8" fill="#ffffff" opacity="0.36"/><circle cx="503" cy="923" r="2.0" fill="#ffffff" opacity="0.46"/><circle cx="144" cy="852" r="1.4" fill="#ffffff" opacity="0.51"/><circle cx="123" cy="678" r="0.8" fill="#ffffff" opacity="0.48"/><circle cx="346" cy="815" r="0.8" fill="#ffffff" opacity="0.91"/><circle cx="200" cy="24" r="1.4" fill="#ffffff" opacity="0.43"/><circle cx="66" cy="804" r="2.0" fill="#ffffff" opacity="0.95"/><circle cx="603" cy="156" r="1.4" fill="#ffffff" opacity="0.9"/><circle cx="281" cy="98" r="1.4" fill="#ffffff" opacity="0.32"/><circle cx="677" cy="584" r="1.1" fill="#ffffff" opacity="0.42"/><circle cx="272" cy="893" r="1.4" fill="#ffffff" opacity="0.38"/><circle cx="382" cy="876" r="0.8" fill="#ffffff" opacity="0.82"/><circle cx="646" cy="819" r="1.1" fill="#ffffff" opacity="0.75"/><circle cx="50" cy="841" r="2.0" fill="#ffffff" opacity="0.68"/><circle cx="141" cy="586" r="2.0" fill="#ffffff" opacity="0.28"/><circle cx="563" cy="260" r="1.1" fill="#ffffff" opacity="0.58"/><circle cx="351" cy="577" r="1.4" fill="#ffffff" opacity="0.43"/><circle cx="668" cy="532" r="2.0" fill="#ffffff" opacity="0.71"/><circle cx="308" cy="989" r="2.0" fill="#ffffff" opacity="0.33"/><circle cx="658" cy="331" r="0.8" fill="#ffffff" opacity="0.4"/><circle cx="509" cy="450" r="2.0" fill="#ffffff" opacity="0.88"/><circle cx="460" cy="875" r="1.1" fill="#ffffff" opacity="0.63"/><circle cx="249" cy="185" r="1.1" fill="#ffffff" opacity="0.49"/><circle cx="93" cy="653" r="1.1" fill="#ffffff" opacity="0.51"/><circle cx="583" cy="413" r="0.8" fill="#ffffff" opacity="0.77"/><circle cx="422" cy="784" r="2.0" fill="#ffffff" opacity="0.77"/><circle cx="215" cy="771" r="1.4" fill="#ffffff" opacity="0.49"/><circle cx="63" cy="1020" r="1.4" fill="#ffffff" opacity="0.65"/><circle cx="368" cy="257" r="1.1" fill="#ffffff" opacity="0.31"/><circle cx="254" cy="787" r="2.0" fill="#ffffff" opacity="0.7"/><circle cx="442" cy="639" r="0.8" fill="#ffffff" opacity="0.34"/><circle cx="435" cy="969" r="2.0" fill="#ffffff" opacity="0.25"/><circle cx="400" cy="958" r="2.0" fill="#ffffff" opacity="0.42"/><circle cx="111" cy="458" r="1.1" fill="#ffffff" opacity="0.36"/><circle cx="698" cy="223" r="2.0" fill="#ffffff" opacity="0.31"/><circle cx="40" cy="2" r="1.1" fill="#ffffff" opacity="0.41"/><circle cx="38" cy="622" r="1.1" fill="#ffffff" opacity="0.69"/><circle cx="540" cy="895" r="0.8" fill="#ffffff" opacity="0.32"/><circle cx="307" cy="392" r="2.0" fill="#ffffff" opacity="0.43"/><circle cx="615" cy="2" r="0.8" fill="#ffffff" opacity="0.63"/><circle cx="471" cy="570" r="1.4" fill="#ffffff" opacity="0.7"/><circle cx="248" cy="973" r="1.1" fill="#ffffff" opacity="0.63"/><circle cx="29" cy="843" r="1.4" fill="#ffffff" opacity="0.29"/><circle cx="198" cy="1020" r="2.0" fill="#ffffff" opacity="0.31"/><circle cx="233" cy="869" r="1.4" fill="#ffffff" opacity="0.41"/><circle cx="34" cy="692" r="2.0" fill="#ffffff" opacity="0.5"/><circle cx="405" cy="405" r="0.8" fill="#ffffff" opacity="0.81"/><circle cx="516" cy="138" r="1.1" fill="#ffffff" opacity="0.6"/><circle cx="205" cy="638" r="1.1" fill="#ffffff" opacity="0.41"/><circle cx="226" cy="542" r="1.4" fill="#ffffff" opacity="0.33"/><circle cx="638" cy="1015" r="1.1" fill="#ffffff" opacity="0.88"/><circle cx="496" cy="854" r="0.8" fill="#ffffff" opacity="0.91"/><circle cx="149" cy="805" r="0.8" fill="#ffffff" opacity="0.4"/><circle cx="610" cy="290" r="2.0" fill="#ffffff" opacity="0.29"/><circle cx="61" cy="377" r="2.0" fill="#ffffff" opacity="0.56"/><circle cx="729" cy="643" r="0.8" fill="#ffffff" opacity="0.95"/><circle cx="169" cy="674" r="1.1" fill="#ffffff" opacity="0.38"/><circle cx="537" cy="957" r="0.8" fill="#ffffff" opacity="0.47"/><circle cx="742" cy="775" r="1.4" fill="#ffffff" opacity="0.94"/><circle cx="453" cy="346" r="0.8" fill="#ffffff" opacity="0.25"/><circle cx="286" cy="165" r="1.4" fill="#ffffff" opacity="0.54"/><circle cx="126" cy="424" r="2.0" fill="#ffffff" opacity="0.5"/><circle cx="316" cy="885" r="0.8" fill="#ffffff" opacity="0.28"/><circle cx="484" cy="400" r="1.4" fill="#ffffff" opacity="0.63"/><circle cx="457" cy="395" r="1.4" fill="#ffffff" opacity="0.5"/><circle cx="485" cy="62" r="2.0" fill="#ffffff" opacity="0.42"/><circle cx="640" cy="828" r="0.8" fill="#ffffff" opacity="0.51"/><circle cx="475" cy="128" r="0.8" fill="#ffffff" opacity="0.43"/><circle cx="64" cy="694" r="1.4" fill="#ffffff" opacity="0.44"/><circle cx="631" cy="89" r="1.4" fill="#ffffff" opacity="0.77"/><circle cx="706" cy="648" r="1.4" fill="#ffffff" opacity="0.46"/><circle cx="738" cy="133" r="0.8" fill="#ffffff" opacity="0.83"/><circle cx="109" cy="973" r="2.0" fill="#ffffff" opacity="0.92"/><circle cx="395" cy="514" r="2.0" fill="#ffffff" opacity="0.82"/><circle cx="135" cy="1016" r="1.1" fill="#ffffff" opacity="0.26"/><circle cx="310" cy="309" r="1.1" fill="#ffffff" opacity="0.48"/><circle cx="327" cy="943" r="1.4" fill="#ffffff" opacity="0.8"/><circle cx="610" cy="161" r="1.1" fill="#ffffff" opacity="0.52"/><circle cx="163" cy="506" r="2.0" fill="#ffffff" opacity="0.3"/><circle cx="34" cy="986" r="1.4" fill="#ffffff" opacity="0.36"/><circle cx="436" cy="215" r="0.8" fill="#ffffff" opacity="0.44"/><circle cx="86" cy="426" r="0.8" fill="#ffffff" opacity="0.54"/><circle cx="726" cy="915" r="1.1" fill="#ffffff" opacity="0.41"/><circle cx="426" cy="943" r="1.1" fill="#ffffff" opacity="0.77"/><circle cx="680" cy="248" r="1.4" fill="#ffffff" opacity="0.46"/><circle cx="580" cy="548" r="1.4" fill="#ffffff" opacity="0.43"/><circle cx="266" cy="407" r="2.0" fill="#ffffff" opacity="0.42"/><circle cx="251" cy="482" r="1.1" fill="#ffffff" opacity="0.45"/><circle cx="592" cy="385" r="1.4" fill="#ffffff" opacity="0.3"/><circle cx="257" cy="503" r="1.1" fill="#ffffff" opacity="0.7"/><circle cx="102" cy="950" r="0.8" fill="#ffffff" opacity="0.32"/><circle cx="486" cy="473" r="2.0" fill="#ffffff" opacity="0.89"/><circle cx="41" cy="601" r="1.1" fill="#ffffff" opacity="0.33"/><circle cx="194" cy="397" r="0.8" fill="#ffffff" opacity="0.51"/><circle cx="182" cy="919" r="1.4" fill="#ffffff" opacity="0.79"/><circle cx="680" cy="12" r="0.8" fill="#ffffff" opacity="0.7"/><circle cx="726" cy="716" r="1.1" fill="#ffffff" opacity="0.28"/><circle cx="348" cy="289" r="0.8" fill="#ffffff" opacity="0.39"/><circle cx="261" cy="78" r="1.1" fill="#ffffff" opacity="0.82"/><circle cx="335" cy="837" r="1.4" fill="#ffffff" opacity="0.38"/><circle cx="319" cy="159" r="1.1" fill="#ffffff" opacity="0.27"/><circle cx="507" cy="990" r="0.8" fill="#ffffff" opacity="0.54"/><circle cx="404" cy="316" r="0.8" fill="#ffffff" opacity="0.71"/><circle cx="407" cy="555" r="2.0" fill="#ffffff" opacity="0.94"/><circle cx="683" cy="629" r="2.0" fill="#ffffff" opacity="0.92"/><circle cx="319" cy="731" r="2.0" fill="#ffffff" opacity="0.54"/><circle cx="372" cy="403" r="2.0" fill="#ffffff" opacity="0.76"/><circle cx="208" cy="12" r="2.0" fill="#ffffff" opacity="0.88"/><circle cx="433" cy="232" r="0.8" fill="#ffffff" opacity="0.53"/>
</svg>
